
        <svg xmlns="http://www.w3.org/2000/svg" xmlns:xlink="http://www.w3.org/1999/xlink" version="1.1" width="3162.111047853983" height="970.7084276864448" viewBox="0 0 3162.111047853983 970.7084276864448">
			
			<g transform="scale(8.10555239269914) translate(10, 10)">
				<defs id="SvgjsDefs1186"/><g id="SvgjsG1187" featureKey="HKaMnE-0" transform="matrix(0.19664205579387217,0,0,0.19664205579387217,0.10308248216053428,3.03023673969724)" fill="#000"><title xmlns="http://www.w3.org/2000/svg">Human Technology</title><path xmlns="http://www.w3.org/2000/svg" d="M480.7,194.8c-4.8-15.3-21-23.8-36.3-19c-4.5,1.4-8.5,3.9-11.9,7.2v0c-11.3,11.3-11.3,29.6,0,41c4.6,4.6,10.7,7.6,17.2,8.3  v5.6c0,9.8-6.1,18.6-15.3,22L393.2,275c-13.9,5.2-23.1,18.4-23.2,33.3v45l-14.2,23.7c-1.7,2.8-0.8,6.5,2.1,8.2  c0.9,0.6,2,0.9,3.1,0.9h9v93.8h-19.4V337.6l13.5-22.5c1.7-2.8,0.8-6.5-2.1-8.2c-0.9-0.6-2-0.9-3.1-0.9h-8.4v-31.7  c0-9.6,7.8-17.4,17.4-17.4c16.2,0,29.4-13.2,29.4-29.4v-44.8c15.7-3.3,25.7-18.7,22.4-34.3c-2.9-13.6-15.1-23.3-29-23  C367.4,63.7,310.9,22.6,245.5,20.3c-1.5-0.1-3-0.1-4.5-0.1C146.9,19.1,68.6,92.3,63.4,186.4c-0.2,3-0.3,28.3-0.3,34.5l-32.2,84.4  c-2.7,7,0.8,14.8,7.8,17.5c1.5,0.6,3.2,0.9,4.8,0.9h44.1v49.8c0,24.2,19.6,43.8,43.8,43.8c0.4,0,0.9,0,1.3,0  c2-0.1,19.5-0.2,49.5-0.3h0.1c8.4,0,15.8,5.7,17.8,13.9l14.2,56.5c0.7,2.7,3.1,4.5,5.8,4.5H376c3.3,0,6-2.7,6-6V386h9  c3.3,0,6-2.7,6-6c0-1.1-0.3-2.2-0.9-3.1L382,353.4v-45.1c0-9.8,6.1-18.6,15.3-22l41.1-15.2c13.9-5.2,23.1-18.4,23.2-33.3v-6.7  C476.9,226.3,485.4,210.1,480.7,194.8z M391.5,137.3c4.5,0,8.8,1.8,12,5c3.2,3.2,5,7.5,5,12h0c0,9.4-7.6,17-17,17  c-9.4,0-17-7.6-17-17C374.5,144.9,382.1,137.3,391.5,137.3z M249.6,435l4.4-7.3l4.4,7.3H249.6z M281.6,344l4.4-7.3l4.4,7.3H281.6z   M315,433.3l-4.4-7.3l8.8,0L315,433.3z M303.1,115.8c-6.6-6.6-6.6-17.4,0-24c6.6-6.6,17.4-6.6,24,0c6.6,6.6,6.6,17.4,0,24  c0,0,0,0,0,0C320.5,122.4,309.7,122.4,303.1,115.8z M338.6,306H329c-3.3,0-6,2.7-6,6c0,1.1,0.3,2.2,0.9,3.1l14.8,24.6v140.1h-17.5  v-33.4l14-23.4c1.7-2.8,0.8-6.5-2.1-8.2c-0.9-0.6-2-0.9-3.1-0.9h-8.9V132.1c15.7-3.3,25.7-18.7,22.4-34.4  C340.2,82,324.8,72,309.1,75.3c-15.7,3.3-25.7,18.7-22.4,34.4c2.4,11.2,11.2,20,22.4,22.4V414H300c-3.3,0-6,2.7-6,6  c0,1.1,0.3,2.2,0.9,3.1l14.3,23.8v33h-17.5V356h9.4c3.3,0,6-2.7,6-6c0-1.1-0.3-2.2-0.9-3.1l-14.6-24.3v-48.4  c0-16.2-13.2-29.4-29.4-29.4c-9.6,0-17.4-7.8-17.4-17.4v-44.8c5.5-1.1,10.5-3.9,14.5-7.8c11.3-11.3,11.4-29.7,0.1-41  c-11.3-11.3-29.7-11.4-41-0.1c-11.3,11.3-11.4,29.7-0.1,41c4,4,9,6.7,14.5,7.9v44.8c0,16.2,13.2,29.4,29.4,29.4  c9.6,0,17.4,7.8,17.4,17.4V324l-13.7,22.9c-1.7,2.8-0.8,6.5,2.1,8.2c0.9,0.6,2,0.9,3.1,0.9h8.6v123.8h-19.4V447h8.8c3.3,0,6-2.7,6-6  c0-1.1-0.3-2.2-0.9-3.1l-14-23.3V308.3c0-14.8-9.3-28.1-23.2-33.3l-41.1-15.2c-9.2-3.4-15.3-12.2-15.3-22v-5.6  c15.9-1.9,27.3-16.3,25.4-32.2c-1.9-15.9-16.3-27.3-32.2-25.4c-15.9,1.9-27.3,16.3-25.4,32.2c1.3,11.4,9.2,20.9,20.2,24.3v6.7  c0,14.8,9.3,28.1,23.2,33.3l41.1,15.2c9.2,3.4,15.3,12.2,15.3,22V414l-14.3,23.9c-1.7,2.8-0.8,6.5,2.1,8.2c0.9,0.6,2,0.9,3.1,0.9  h9.2v32.8h-23.4l-13.1-52c-3.4-13.5-15.5-23-29.5-23h-0.1c-30.9,0.1-47.7,0.2-49.8,0.3c-17.5,0.5-32.2-13.3-32.7-30.8  c0-0.3,0-0.6,0-0.9v-55.8c0-3.3-2.7-6-6-6H43.6c-0.9,0-1.6-0.7-1.5-1.6c0-0.2,0-0.4,0.1-0.5l32.6-85.4c0.3-0.7,0.4-1.4,0.4-2.1  c0-12.4,0.1-32.8,0.3-35c4.8-87.6,77.8-155.9,165.5-154.9c1.4,0,2.8,0,4.2,0.1c60,2.2,111.9,39.6,133.9,95.8  c-14.5,6.9-20.6,24.1-13.7,38.6c3.9,8.2,11.3,14.1,20.2,15.9v44.8c0,9.6-7.8,17.4-17.4,17.4c-16.2,0-29.4,13.2-29.4,29.4V306z   M226.7,166.3L226.7,166.3c-6.6-6.6-6.6-17.4,0-24s17.4-6.6,24,0c6.6,6.6,6.6,17.4,0,24c0,0,0,0,0,0  C244.1,172.9,233.4,172.9,226.7,166.3z M165.2,215.4c-6.6-6.6-6.6-17.4,0-24c6.6-6.6,17.4-6.6,24,0s6.6,17.4,0,24c0,0,0,0,0,0  C182.6,222.1,171.8,222.1,165.2,215.4z M344,325.3l-4.4-7.3l8.8,0L344,325.3z M371.6,374l4.4-7.3l4.4,7.3H371.6z M465,215.4  c-6.6,6.6-17.4,6.6-24,0c-6.6-6.6-6.6-17.4,0-24c6.6-6.6,17.4-6.6,24,0C471.6,198.1,471.6,208.8,465,215.4z"/></g><g id="SvgjsG1188" featureKey="J3GnXt-0" transform="matrix(2.7503327672317295,0,0,2.7503327672317295,104.87450084915241,22.578375781158556)" fill="#000"><path d="M6.54 5.84 c1.5067 0 2.8134 0.31 3.92 0.93 s1.9533 1.47 2.54 2.55 s0.88 2.28 0.88 3.6 s-0.32666 2.5234 -0.98 3.61 s-1.5667 1.9367 -2.74 2.55 s-2.48 0.92 -3.92 0.92 l-4.74 0 l0 -14.16 l5.04 0 z M5.94 18.2 c1.08 0 2.07 -0.21002 2.97 -0.63002 s1.6133 -1.0233 2.14 -1.81 s0.79 -1.7333 0.79 -2.84 c0 -1.6 -0.49666 -2.88 -1.49 -3.84 s-2.31 -1.44 -3.95 -1.44 l-2.98 0 l0 10.56 l2.52 0 z M17.22 5.800000000000001 c0.36 0 0.67002 0.13002 0.93002 0.39002 s0.39 0.57 0.39 0.93 c0 0.37334 -0.13334 0.68668 -0.4 0.94002 s-0.57332 0.38 -0.91998 0.38 c-0.37334 0 -0.68668 -0.12666 -0.94002 -0.38 s-0.38 -0.56668 -0.38 -0.94002 s0.13334 -0.68668 0.4 -0.94002 s0.57332 -0.38 0.91998 -0.38 z M18.12 10.52 l0 9.48 l-1.8 0 l0 -9.48 l1.8 0 z M21.92 10.52 l2.84 7.26 l2.72 -7.26 l1.92 0 l-3.72 9.48 l-1.98 0 l-3.86 -9.48 l2.08 0 z M32.02 5.800000000000001 c0.36 0 0.67002 0.13002 0.93002 0.39002 s0.39 0.57 0.39 0.93 c0 0.37334 -0.13334 0.68668 -0.4 0.94002 s-0.57332 0.38 -0.91998 0.38 c-0.37334 0 -0.68668 -0.12666 -0.94002 -0.38 s-0.38 -0.56668 -0.38 -0.94002 s0.13334 -0.68668 0.4 -0.94002 s0.57332 -0.38 0.91998 -0.38 z M32.92 10.52 l0 9.48 l-1.8 0 l0 -9.48 l1.8 0 z M40.74 10.28 c1.0667 0 1.9033 0.32 2.51 0.96 s0.91666 1.5 0.93 2.58 l0 6.18 l-1.8 0 l0 -5.66 c0 -0.73334 -0.19 -1.3133 -0.57 -1.74 s-0.91 -0.64 -1.59 -0.64 c-0.84 0 -1.49 0.28 -1.95 0.84 s-0.69 1.3067 -0.69 2.24 l0 4.96 l-1.8 0 l0 -9.48 l1.8 0 l0 1.46 l0.04 0 c0.25334 -0.53334 0.66334 -0.95 1.23 -1.25 s1.1967 -0.45 1.89 -0.45 z M51.24000000000001 10.28 c1.4533 0 2.5834 0.45664 3.39 1.37 s1.2167 2.17 1.23 3.77 l0 0.5 l-7.6 0 c0 0.77334 0.31 1.4233 0.93 1.95 s1.3767 0.79666 2.27 0.81 c0.98666 0 1.8533 -0.47334 2.6 -1.42 l1.36 1.04 c-1.0133 1.2933 -2.4134 1.94 -4.2 1.94 c-1.4533 0 -2.6234 -0.46334 -3.51 -1.39 s-1.3433 -2.1234 -1.37 -3.59 c0 -1.4133 0.45666 -2.59 1.37 -3.53 s2.09 -1.4233 3.53 -1.45 z M53.940000000000005 14.48 c-0.02666 -0.89334 -0.28 -1.5767 -0.76 -2.05 s-1.14 -0.71 -1.98 -0.71 c-0.56 0 -1.0633 0.13666 -1.51 0.41 s-0.79666 0.62668 -1.05 1.06 s-0.38 0.86334 -0.38 1.29 l5.68 0 z M67.92000000000002 5.84 l0 1.8 l-4.56 0 l0 12.36 l-1.92 0 l0 -12.36 l-4.56 0 l0 -1.8 l11.04 0 z M71.62000000000002 10.28 c1.4533 0 2.5834 0.45664 3.39 1.37 s1.2167 2.17 1.23 3.77 l0 0.5 l-7.6 0 c0 0.77334 0.31 1.4233 0.93 1.95 s1.3767 0.79666 2.27 0.81 c0.98666 0 1.8533 -0.47334 2.6 -1.42 l1.36 1.04 c-1.0133 1.2933 -2.4134 1.94 -4.2 1.94 c-1.4533 0 -2.6234 -0.46334 -3.51 -1.39 s-1.3433 -2.1234 -1.37 -3.59 c0 -1.4133 0.45666 -2.59 1.37 -3.53 s2.09 -1.4233 3.53 -1.45 z M74.32000000000002 14.48 c-0.02666 -0.89334 -0.28 -1.5767 -0.76 -2.05 s-1.14 -0.71 -1.98 -0.71 c-0.56 0 -1.0633 0.13666 -1.51 0.41 s-0.79666 0.62668 -1.05 1.06 s-0.38 0.86334 -0.38 1.29 l5.68 0 z M82.90000000000002 10.3 c1.5067 0 2.72 0.5 3.64 1.5 l-1.36 1.24 c-0.65334 -0.70666 -1.44 -1.06 -2.36 -1.06 c-0.88 0 -1.5933 0.31334 -2.14 0.94 s-0.82 1.4333 -0.82 2.42 c0 0.93334 0.28666 1.7 0.86 2.3 s1.3067 0.90666 2.2 0.92 c0.94666 0 1.7133 -0.35334 2.3 -1.06 l1.28 1.28 c-0.85334 0.97334 -2.0534 1.46 -3.6 1.46 c-1.4533 0 -2.6366 -0.45334 -3.55 -1.36 s-1.3833 -2.1 -1.41 -3.58 c0.01334 -1.5067 0.48334 -2.7134 1.41 -3.62 s2.11 -1.3667 3.55 -1.38 z M89.84000000000002 4.880000000000001 l0.000019531 7.1 l0.04 0 c0.25334 -0.53334 0.66334 -0.95 1.23 -1.25 s1.1967 -0.45 1.89 -0.45 c1.0533 0 1.89 0.32 2.51 0.96 s0.93 1.5 0.93 2.58 l0 6.18 l-1.8 0 l0 -5.66 c0 -0.73334 -0.19 -1.3133 -0.57 -1.74 s-0.91 -0.64 -1.59 -0.64 c-0.84 0 -1.4867 0.27334 -1.94 0.82 s-0.68668 1.3 -0.70002 2.26 l0 4.96 l-1.8 0 l0 -15.12 l1.8 0 z"/></g>
			</g>
		</svg>
	